<?xml version="1.0" encoding="UTF-8"?>
<svg width="371px" height="103px" viewBox="0 0 371 103" version="1.1" xmlns="http://www.w3.org/2000/svg" xmlns:xlink="http://www.w3.org/1999/xlink">
    <!-- Generator: Sketch 57.1 (83088) - https://sketch.com -->
    <title>hornbill-colored</title>
    <desc>Created with Sketch.</desc>
    <defs>
        <path d="M-20.0704,22.1184 L43.6224,22.1184 C55.4987313,22.1184 65.1264,31.7460687 65.1264,43.6224 L65.1264,63.0784 C65.1264,64.2094792 64.2094792,65.1264 63.0784,65.1264 L-0.6144,65.1264 C-12.4907313,65.1264 -22.1184,55.4987313 -22.1184,43.6224 L-22.1184,24.1664 C-22.1184,23.0353208 -21.2014792,22.1184 -20.0704,22.1184 Z" id="path-1"></path>
        <path d="M10.24,0 L73.728,0 C79.3833958,-1.10848804e-14 83.968,4.58460416 83.968,10.24 L83.968,52.8384 L83.968,52.8384 L10.24,52.8384 C4.58460416,52.8384 -4.63648428e-15,48.2537958 0,42.5984 L0,10.24 C-6.92586241e-16,4.58460416 4.58460416,2.8152362e-15 10.24,0 Z" id="path-3"></path>
        <circle id="path-5" cx="20.2752" cy="40.96" r="13.5168"></circle>
        <filter x="-14.8%" y="-7.4%" width="129.6%" height="129.6%" filterUnits="objectBoundingBox" id="filter-6">
            <feOffset dx="0" dy="2" in="SourceAlpha" result="shadowOffsetOuter1"></feOffset>
            <feGaussianBlur stdDeviation="1" in="shadowOffsetOuter1" result="shadowBlurOuter1"></feGaussianBlur>
            <feColorMatrix values="0 0 0 0 0.54517663   0 0 0 0 0.502896354   0 0 0 0 0.502896354  0 0 0 0.5 0" type="matrix" in="shadowBlurOuter1"></feColorMatrix>
        </filter>
    </defs>
    <g id="Page-1" stroke="none" stroke-width="1" fill="none" fill-rule="evenodd">
        <g id="Hornbill" transform="translate(-220.000000, -206.000000)">
            <g id="hornbill-colored" transform="translate(220.000000, 206.000000)">
                <path d="M129.849408,54.884672 C130.34861,54.2456928 130.917693,53.6566427 131.556672,53.117504 C132.195651,52.5783653 132.929468,52.109122 133.758144,51.70976 C134.58682,51.310398 135.530299,51.0008971 136.588608,50.781248 C137.646917,50.5615989 138.844985,50.451776 140.182848,50.451776 C142.439243,50.451776 144.436023,50.8860757 146.173248,51.754688 C147.910473,52.6233003 149.368122,53.8014006 150.54624,55.289024 C151.724358,56.7766474 152.617917,58.518838 153.226944,60.515648 C153.835971,62.512458 154.14048,64.6290448 154.14048,66.865472 L154.14048,86.843456 C154.14048,87.5623076 153.970754,88.1014382 153.631296,88.460864 C153.291838,88.8202898 152.802627,89 152.163648,89 L147.610944,89 C146.81222,89 146.278081,88.8502415 146.008512,88.55072 C145.738943,88.2511985 145.60416,87.7220518 145.60416,86.963264 L145.60416,66.865472 C145.60416,65.8071627 145.419458,64.778821 145.050048,63.780416 C144.680638,62.782011 144.151491,61.8984358 143.462592,61.129664 C142.773693,60.3608922 141.940037,59.7418903 140.9616,59.27264 C139.983163,58.8033897 138.894918,58.568768 137.696832,58.568768 C136.778299,58.568768 135.859781,58.7434863 134.941248,59.092928 C134.022715,59.4423697 133.18906,59.9465567 132.440256,60.605504 C131.691452,61.2644513 131.077442,62.0731472 130.598208,63.031616 C130.118974,63.9900848 129.869376,65.0783299 129.849408,66.296384 L129.849408,85.85504 C129.849408,86.2344339 129.82944,86.6138221 129.789504,86.993216 C129.749568,87.3726099 129.664705,87.7120625 129.534912,88.011584 C129.405119,88.3111055 129.220417,88.5507191 128.9808,88.730432 C128.741183,88.9101449 128.431682,89 128.052288,89 L123.110208,89 C122.451261,89 121.967042,88.8452495 121.657536,88.535744 C121.34803,88.2262385 121.19328,87.7819549 121.19328,87.20288 L121.19328,41.436224 C121.19328,40.9170534 121.353022,40.4877457 121.672512,40.148288 C121.992002,39.8088303 122.461245,39.639104 123.080256,39.639104 L128.022336,39.639104 C128.481602,39.639104 128.900926,39.8138223 129.28032,40.163264 C129.659714,40.5127057 129.849408,40.9270376 129.849408,41.406272 L129.849408,54.884672 Z M160.520256,70.040384 C160.520256,68.2232869 160.754878,66.4711124 161.224128,64.783808 C161.693378,63.0965036 162.357308,61.5240393 163.215936,60.066368 C164.074564,58.6086967 165.102906,57.2858299 166.300992,56.097728 C167.499078,54.9096261 168.826937,53.8912682 170.284608,53.042624 C171.742279,52.1939798 173.30476,51.5350423 174.972096,51.065792 C176.639432,50.5965417 178.381623,50.36192 180.19872,50.36192 C181.995849,50.36192 183.733048,50.5965417 185.410368,51.065792 C187.087688,51.5350423 188.650169,52.1939798 190.097856,53.042624 C191.545543,53.8912682 192.86841,54.9096261 194.066496,56.097728 C195.264582,57.2858299 196.292924,58.6086967 197.151552,60.066368 C198.01018,61.5240393 198.67411,63.0965036 199.14336,64.783808 C199.61261,66.4711124 199.847232,68.2232869 199.847232,70.040384 C199.847232,71.8574811 199.61261,73.6046636 199.14336,75.281984 C198.67411,76.9593044 198.01018,78.5217848 197.151552,79.969472 C196.292924,81.4171592 195.264582,82.740026 194.066496,83.938112 C192.86841,85.136198 191.545543,86.1595478 190.097856,87.008192 C188.650169,87.8568362 187.087688,88.5157737 185.410368,88.985024 C183.733048,89.4542743 181.995849,89.688896 180.19872,89.688896 C178.381623,89.688896 176.639432,89.4542743 174.972096,88.985024 C173.30476,88.5157737 171.742279,87.8568362 170.284608,87.008192 C168.826937,86.1595478 167.499078,85.136198 166.300992,83.938112 C165.102906,82.740026 164.074564,81.4171592 163.215936,79.969472 C162.357308,78.5217848 161.693378,76.9593044 161.224128,75.281984 C160.754878,73.6046636 160.520256,71.8574811 160.520256,70.040384 Z M168.96672,70.040384 C168.96672,71.637832 169.246269,73.1503929 169.805376,74.578112 C170.364483,76.0058311 171.143227,77.2488267 172.141632,78.307136 C173.140037,79.3654453 174.323129,80.2040929 175.690944,80.823104 C177.058759,81.4421151 178.551352,81.751616 180.168768,81.751616 C181.746248,81.751616 183.208889,81.4421151 184.556736,80.823104 C185.904583,80.2040929 187.067707,79.3654453 188.046144,78.307136 C189.024581,77.2488267 189.788349,76.0058311 190.337472,74.578112 C190.886595,73.1503929 191.161152,71.637832 191.161152,70.040384 C191.161152,68.4629041 190.886595,66.9553352 190.337472,65.517632 C189.788349,64.0799288 189.024581,62.8169654 188.046144,61.728704 C187.067707,60.6404426 185.904583,59.7718432 184.556736,59.12288 C183.208889,58.4739168 181.746248,58.14944 180.168768,58.14944 C178.551352,58.14944 177.058759,58.4739168 175.690944,59.12288 C174.323129,59.7718432 173.140037,60.6404426 172.141632,61.728704 C171.143227,62.8169654 170.364483,64.0799288 169.805376,65.517632 C169.246269,66.9553352 168.96672,68.4629041 168.96672,70.040384 Z M206.646336,52.728128 C206.646336,52.1490531 206.841022,51.7097615 207.2304,51.41024 C207.619778,51.1107185 208.044094,50.96096 208.50336,50.96096 L212.307264,50.96096 C212.806466,50.96096 213.185855,51.1107185 213.44544,51.41024 C213.705025,51.7097615 213.904703,52.0791658 214.04448,52.518464 C214.184257,52.9577622 214.284096,53.4319975 214.344,53.941184 C214.403904,54.4503705 214.473792,54.9146219 214.553664,55.333952 C214.992962,54.7149409 215.487165,54.1109149 216.036288,53.521856 C216.585411,52.9327971 217.209405,52.4086423 217.908288,51.949376 C218.607171,51.4901097 219.3959,51.1207054 220.274496,50.841152 C221.153092,50.5615986 222.151482,50.421824 223.269696,50.421824 C224.268101,50.421824 225.166652,50.4867194 225.965376,50.616512 C226.7641,50.7463046 227.527868,50.9459827 228.256704,51.215552 C228.98554,51.4851213 229.699389,51.8345579 230.398272,52.263872 C231.097155,52.6931861 231.845948,53.1973731 232.644672,53.776448 C232.98413,53.9960971 233.278655,54.2456946 233.528256,54.525248 C233.777857,54.8048014 233.902656,55.1342701 233.902656,55.513664 C233.882688,55.6734088 233.852736,55.8431351 233.8128,56.022848 C233.772864,56.2025609 233.692993,56.3822711 233.573184,56.561984 L231.11712,60.455744 C230.957375,60.655425 230.772673,60.8001916 230.563008,60.890048 C230.353343,60.9799044 230.168641,61.024832 230.008896,61.024832 C229.689406,61.024832 229.379905,60.9449608 229.080384,60.785216 C228.421437,60.4257902 227.822403,60.0863376 227.283264,59.766848 C226.744125,59.4473584 226.214979,59.1728011 225.695808,58.943168 C225.176637,58.7135349 224.642499,58.5338246 224.093376,58.404032 C223.544253,58.2742394 222.930243,58.209344 222.251328,58.209344 C220.474167,58.209344 218.97159,58.7784263 217.743552,59.916608 C216.515514,61.0547897 215.691842,62.622262 215.272512,64.619072 L215.272512,87.20288 C215.272512,88.400966 214.65351,89 213.415488,89 L208.50336,89 C207.265338,89 206.646336,88.400966 206.646336,87.20288 L206.646336,52.728128 Z M239.413824,52.728128 C239.413824,52.4485746 239.533631,52.1490576 239.773248,51.829568 C240.012865,51.5100784 240.242495,51.3104004 240.462144,51.230528 C240.621889,51.0707832 240.861502,50.98592 241.180992,50.975936 C241.500482,50.965952 241.799999,50.96096 242.079552,50.96096 L245.104704,50.96096 C245.683779,50.96096 246.113087,51.1506541 246.39264,51.530048 C246.672193,51.9094419 246.861888,52.3287657 246.961728,52.788032 L247.2912,55.962944 C247.750466,55.2840286 248.314557,54.6151073 248.983488,53.95616 C249.652419,53.2972127 250.446139,52.7081626 251.364672,52.188992 C252.283205,51.6698214 253.331514,51.2504976 254.509632,50.931008 C255.68775,50.6115184 257.015609,50.451776 258.493248,50.451776 C260.849484,50.451776 262.946103,50.8760918 264.783168,51.724736 C266.620233,52.5733802 268.167738,53.7365046 269.425728,55.214144 C270.683718,56.6917834 271.637181,58.428982 272.286144,60.425792 C272.935107,62.422602 273.259584,64.5691405 273.259584,66.865472 L273.259584,86.843456 C273.259584,87.5623076 273.089858,88.1014382 272.7504,88.460864 C272.410942,88.8202898 271.921731,89 271.282752,89 L266.730048,89 C265.931324,89 265.397185,88.8502415 265.127616,88.55072 C264.858047,88.2511985 264.723264,87.7220518 264.723264,86.963264 L264.723264,67.015232 C264.723264,65.9569227 264.543554,64.923589 264.184128,63.9152 C263.824702,62.906811 263.300547,62.003268 262.611648,61.204544 C261.922749,60.40582 261.069125,59.7668504 260.050752,59.287616 C259.032379,58.8083816 257.854279,58.568768 256.516416,58.568768 C255.597883,58.568768 254.644421,58.7534702 253.656,59.12288 C252.667579,59.4922898 251.764036,60.0164446 250.945344,60.69536 C250.126652,61.3742754 249.447747,62.1979472 248.908608,63.1664 C248.369469,64.1348528 248.08992,65.2280899 248.069952,66.446144 L248.069952,85.85504 C248.069952,86.2344339 248.049984,86.6138221 248.010048,86.993216 C247.970112,87.3726099 247.885249,87.7120625 247.755456,88.011584 C247.625663,88.3111055 247.440961,88.5507191 247.201344,88.730432 C246.961727,88.9101449 246.652226,89 246.272832,89 L241.330752,89 C240.671805,89 240.187586,88.8452495 239.87808,88.535744 C239.568574,88.2262385 239.413824,87.7819549 239.413824,87.20288 L239.413824,52.728128 Z M288.355392,87.20288 C288.175679,87.801923 287.980993,88.2511985 287.771328,88.55072 C287.561663,88.8502415 287.157315,89 286.558272,89 L282.03552,89 C280.77753,89 280.148544,88.400966 280.148544,87.20288 L280.148544,41.466176 C280.148544,40.9470054 280.328254,40.5176977 280.68768,40.17824 C281.047106,39.8387823 281.456446,39.669056 281.915712,39.669056 L286.857792,39.669056 C287.456835,39.669056 287.926078,39.8437743 288.265536,40.193216 C288.604994,40.5426577 288.77472,40.9669735 288.77472,41.466176 L288.77472,55.214144 C290.212423,53.7365046 291.864759,52.5584044 293.731776,51.679808 C295.598793,50.8012116 297.74034,50.36192 300.15648,50.36192 C302.852173,50.36192 305.363124,50.8760909 307.689408,51.904448 C310.015692,52.9328051 312.042423,54.3355431 313.769664,56.112704 C315.496905,57.8898649 316.849723,59.9715081 317.82816,62.357696 C318.806597,64.7438839 319.295808,67.3047543 319.295808,70.040384 C319.295808,72.7560456 318.806597,75.3069321 317.82816,77.69312 C316.849723,80.0793079 315.496905,82.1609511 313.769664,83.938112 C312.042423,85.7152729 310.015692,87.1180109 307.689408,88.146368 C305.363124,89.1747251 302.852173,89.688896 300.15648,89.688896 C298.978362,89.688896 297.850181,89.5591053 296.771904,89.29952 C295.693627,89.0399347 294.665285,88.6855062 293.686848,88.236224 C292.708411,87.7869418 291.794884,87.2528031 290.94624,86.633792 C290.097596,86.0147809 289.323843,85.3558435 288.62496,84.65696 L288.355392,87.20288 Z M310.879296,70.040384 C310.879296,68.4629041 310.599747,66.9553352 310.04064,65.517632 C309.481533,64.0799288 308.702789,62.8169654 307.704384,61.728704 C306.705979,60.6404426 305.527879,59.7718432 304.170048,59.12288 C302.812217,58.4739168 301.344584,58.14944 299.767104,58.14944 C298.169656,58.14944 296.667079,58.4739168 295.259328,59.12288 C293.851577,59.7718432 292.623557,60.6404426 291.575232,61.728704 C290.526907,62.8169654 289.703235,64.0799288 289.104192,65.517632 C288.505149,66.9553352 288.205632,68.4629041 288.205632,70.040384 L288.205632,70.250048 C288.2256,71.8275279 288.545085,73.3101371 289.164096,74.69792 C289.783107,76.0857029 290.611771,77.3037388 291.650112,78.352064 C292.688453,79.4003892 293.901497,80.229053 295.28928,80.83808 C296.677063,81.447107 298.169656,81.751616 299.767104,81.751616 C301.344584,81.751616 302.812217,81.4421151 304.170048,80.823104 C305.527879,80.2040929 306.705979,79.3654453 307.704384,78.307136 C308.702789,77.2488267 309.481533,76.0058311 310.04064,74.578112 C310.599747,73.1503929 310.879296,71.637832 310.879296,70.040384 Z M326.124864,52.788032 C326.124864,52.2688614 326.274623,51.8345617 326.574144,51.48512 C326.873665,51.1356783 327.312957,50.96096 327.892032,50.96096 L332.864064,50.96096 C333.083713,50.96096 333.308351,51.0058876 333.537984,51.095744 C333.767617,51.1856004 333.972287,51.3153912 334.152,51.48512 C334.331713,51.6548488 334.481471,51.8495349 334.60128,52.069184 C334.721089,52.2888331 334.780992,52.5284467 334.780992,52.788032 L334.780992,87.20288 C334.780992,88.400966 334.152006,89 332.894016,89 L327.921984,89 C326.723898,89 326.124864,88.400966 326.124864,87.20288 L326.124864,52.788032 Z M326.124864,39.549248 C326.124864,38.351162 326.713914,37.752128 327.892032,37.752128 L332.923968,37.752128 C333.483075,37.752128 333.93235,37.9018865 334.271808,38.201408 C334.611266,38.5009295 334.780992,38.950205 334.780992,39.549248 L334.780992,44.012096 C334.780992,44.4713623 334.62125,44.905662 334.30176,45.315008 C333.98227,45.724354 333.532995,45.929024 332.95392,45.929024 L327.921984,45.929024 C326.723898,45.929024 326.124864,45.2900544 326.124864,44.012096 L326.124864,39.549248 Z M344.545344,41.466176 C344.545344,40.9470054 344.685119,40.5176977 344.964672,40.17824 C345.244225,39.8387823 345.673533,39.669056 346.252608,39.669056 L351.494208,39.669056 C351.89357,39.669056 352.267966,39.8387823 352.617408,40.17824 C352.96685,40.5176977 353.141568,40.9470054 353.141568,41.466176 L353.141568,87.20288 C353.141568,87.801923 352.976834,88.2511985 352.64736,88.55072 C352.317886,88.8502415 351.873603,89 351.314496,89 L346.312512,89 C345.673533,89 345.219265,88.8502415 344.949696,88.55072 C344.680127,88.2511985 344.545344,87.801923 344.545344,87.20288 L344.545344,41.466176 Z M361.55808,41.466176 C361.55808,40.9470054 361.697855,40.5176977 361.977408,40.17824 C362.256961,39.8387823 362.686269,39.669056 363.265344,39.669056 L368.506944,39.669056 C368.906306,39.669056 369.280702,39.8387823 369.630144,40.17824 C369.979586,40.5176977 370.154304,40.9470054 370.154304,41.466176 L370.154304,87.20288 C370.154304,87.801923 369.98957,88.2511985 369.660096,88.55072 C369.330622,88.8502415 368.886339,89 368.327232,89 L363.325248,89 C362.686269,89 362.232001,88.8502415 361.962432,88.55072 C361.692863,88.2511985 361.55808,87.801923 361.55808,87.20288 L361.55808,41.466176 Z" id="hornbill" fill="#4D46A4" fill-rule="nonzero"></path>
                <g id="Group" transform="translate(0.776000, 0.000000)">
                    <g id="Rectangle" transform="translate(0.000000, 15.564800)">
                        <mask id="mask-2" fill="white">
                            <use xlink:href="#path-1"></use>
                        </mask>
                        <use id="Mask" fill="#1C1A55" transform="translate(21.504000, 43.622400) rotate(-90.000000) translate(-21.504000, -43.622400) " xlink:href="#path-1"></use>
                        <path d="M-11.4688,31.9488 L52.224,31.9488 C64.1003313,31.9488 73.728,41.5764687 73.728,53.4528 L73.728,72.9088 C73.728,74.0398792 72.8110792,74.9568 71.68,74.9568 L7.9872,74.9568 C-3.88913126,74.9568 -13.5168,65.3291313 -13.5168,53.4528 L-13.5168,33.9968 C-13.5168,32.8657208 -12.5998792,31.9488 -11.4688,31.9488 Z" fill="#38368E" mask="url(#mask-2)" transform="translate(30.105600, 53.452800) rotate(-90.000000) translate(-30.105600, -53.452800) "></path>
                        <path d="M1.6384,36.4544 L65.3312,36.4544 C77.2075313,36.4544 86.8352,46.0820687 86.8352,57.9584 L86.8352,77.4144 C86.8352,78.5454792 85.9182792,79.4624 84.7872,79.4624 L21.0944,79.4624 C9.21806874,79.4624 -0.4096,69.8347313 -0.4096,57.9584 L-0.4096,38.5024 C-0.4096,37.3713208 0.507320832,36.4544 1.6384,36.4544 Z" id="Rectangle-Copy" fill="#6A67D7" mask="url(#mask-2)" transform="translate(43.212800, 57.958400) rotate(-90.000000) translate(-43.212800, -57.958400) "></path>
                    </g>
                    <g id="Rectangle" transform="translate(21.504000, 15.155200)">
                        <mask id="mask-4" fill="white">
                            <use xlink:href="#path-3"></use>
                        </mask>
                        <use id="Mask" fill="#FFB800" xlink:href="#path-3"></use>
                        <rect fill="#FFFFFF" mask="url(#mask-4)" x="-5.7344" y="12.6976" width="102.4" height="6.144"></rect>
                    </g>
                    <path d="M25.8048,0 L46.2848,0 C54.8810017,-3.35545347e-15 61.8496,6.96859833 61.8496,15.5648 L61.8496,15.5648 L61.8496,15.5648 L25.8048,15.5648 L25.8048,0 Z" id="Rectangle" fill="#FF5F00" transform="translate(43.827200, 7.782400) scale(1, -1) translate(-43.827200, -7.782400) "></path>
                    <g id="Oval">
                        <use fill="black" fill-opacity="1" filter="url(#filter-6)" xlink:href="#path-5"></use>
                        <use fill="#FFFFFF" fill-rule="evenodd" xlink:href="#path-5"></use>
                    </g>
                    <circle id="Oval" fill="#242149" cx="20.2752" cy="40.96" r="6.9632"></circle>
                </g>
            </g>
        </g>
    </g>
</svg>